    <svg xmlns="http://www.w3.org/2000/svg" xmlns:xlink="http://www.w3.org/1999/xlink" width="100" zoomAndPan="magnify"
        viewBox="0 0 75 74.999997" height="100" preserveAspectRatio="xMidYMid meet" version="1.2">
        <g id="de6e890d01">
            <path style=" stroke:none;fill-rule:nonzero;fill:#44403c;fill-opacity:1;"
                d="M -15.050781 33.195312 L -15.105469 44.503906 L -0.257812 53.121094 L 0.835938 53.121094 L 15.570312 44.195312 L 10.238281 41.277344 L 10.210938 30.667969 L 1.117188 35.777344 L 1.03125 46.132812 L 6.085938 43.019531 L 8.300781 44.113281 L 0.75 49.191406 L -11.515625 42.597656 L -11.542969 35.300781 Z M -15.050781 33.195312 " />
            <path style=" stroke:none;fill-rule:nonzero;fill:#44403c;fill-opacity:1;"
                d="M -9.660156 41.082031 L -9.539062 34.769531 L -15.132812 31.394531 L -15.140625 26.4375 L -0.371094 17.363281 L 0.21875 17.363281 L 15.597656 26.234375 L 15.628906 40.96875 L 12.089844 39.03125 L 12.0625 28.757812 L 0.0507812 21.910156 L -11.207031 28.480469 L -11.203125 29.394531 L -0.492188 35.640625 L -0.511719 46.175781 Z M -9.660156 41.082031 " />
            <path style=" stroke:none;fill-rule:nonzero;fill:#44403c;fill-opacity:1;"
                d="M -8.820312 29.179688 L 0.191406 24.015625 L 9.339844 29.152344 L 0.386719 34.289062 Z M -8.820312 29.179688 " />
            <path style=" stroke:none;fill-rule:nonzero;fill:#44403c;fill-opacity:1;"
                d="M 59.910156 33.195312 L 59.851562 44.503906 L 74.699219 53.121094 L 75.796875 53.121094 L 90.53125 44.195312 L 85.199219 41.277344 L 85.167969 30.667969 L 76.074219 35.777344 L 75.992188 46.132812 L 81.042969 43.019531 L 83.261719 44.113281 L 75.710938 49.191406 L 63.445312 42.597656 L 63.417969 35.300781 Z M 59.910156 33.195312 " />
            <path style=" stroke:none;fill-rule:nonzero;fill:#44403c;fill-opacity:1;"
                d="M 65.300781 41.082031 L 65.421875 34.769531 L 59.824219 31.394531 L 59.820312 26.4375 L 74.589844 17.363281 L 75.179688 17.363281 L 90.558594 26.234375 L 90.585938 40.96875 L 87.050781 39.03125 L 87.023438 28.757812 L 75.007812 21.910156 L 63.753906 28.480469 L 63.757812 29.394531 L 74.46875 35.640625 L 74.449219 46.175781 Z M 65.300781 41.082031 " />
            <path style=" stroke:none;fill-rule:nonzero;fill:#44403c;fill-opacity:1;"
                d="M 66.140625 29.179688 L 75.148438 24.015625 L 84.300781 29.152344 L 75.347656 34.289062 Z M 66.140625 29.179688 " />
            <path style=" stroke:none;fill-rule:nonzero;fill:#44403c;fill-opacity:1;"
                d="M 22.410156 -0.96875 L 22.351562 10.339844 L 37.199219 18.957031 L 38.296875 18.957031 L 53.03125 10.03125 L 47.699219 7.113281 L 47.667969 -3.496094 L 38.574219 1.613281 L 38.492188 11.96875 L 43.542969 8.855469 L 45.761719 9.949219 L 38.210938 15.027344 L 25.945312 8.433594 L 25.917969 1.136719 Z M 22.410156 -0.96875 " />
            <path style=" stroke:none;fill-rule:nonzero;fill:#44403c;fill-opacity:1;"
                d="M 27.800781 6.917969 L 27.921875 0.609375 L 22.324219 -2.769531 L 22.320312 -7.726562 L 37.089844 -16.800781 L 37.679688 -16.800781 L 53.058594 -7.929688 L 53.085938 6.804688 L 49.550781 4.867188 L 49.523438 -5.402344 L 37.507812 -12.253906 L 26.253906 -5.683594 L 26.257812 -4.765625 L 36.96875 1.476562 L 36.949219 12.011719 Z M 27.800781 6.917969 " />
            <path style=" stroke:none;fill-rule:nonzero;fill:#44403c;fill-opacity:1;"
                d="M 28.640625 -4.984375 L 37.648438 -10.148438 L 46.800781 -5.011719 L 37.847656 0.125 Z M 28.640625 -4.984375 " />
            <path style=" stroke:none;fill-rule:nonzero;fill:#44403c;fill-opacity:1;"
                d="M 22.410156 73.433594 L 22.351562 84.742188 L 37.199219 93.359375 L 38.296875 93.359375 L 53.03125 84.433594 L 47.699219 81.515625 L 47.667969 70.90625 L 38.574219 76.015625 L 38.492188 86.371094 L 43.542969 83.253906 L 45.761719 84.351562 L 38.210938 89.429688 L 25.945312 82.835938 L 25.917969 75.535156 Z M 22.410156 73.433594 " />
            <path style=" stroke:none;fill-rule:nonzero;fill:#44403c;fill-opacity:1;"
                d="M 27.800781 81.320312 L 27.921875 75.007812 L 22.324219 71.632812 L 22.320312 66.671875 L 37.089844 57.601562 L 37.679688 57.601562 L 53.058594 66.472656 L 53.085938 81.207031 L 49.550781 79.269531 L 49.523438 68.996094 L 37.507812 62.148438 L 26.253906 68.714844 L 26.257812 69.632812 L 36.96875 75.878906 L 36.949219 86.414062 Z M 27.800781 81.320312 " />
            <path style=" stroke:none;fill-rule:nonzero;fill:#44403c;fill-opacity:1;"
                d="M 28.640625 69.417969 L 37.648438 64.253906 L 46.800781 69.390625 L 37.847656 74.527344 Z M 28.640625 69.417969 " />
        </g>
    </svg>
