<svg xmlns="http://www.w3.org/2000/svg" xmlns:xlink="http://www.w3.org/1999/xlink" width="2560" zoomAndPan="magnify" viewBox="0 0 1920 1079.999946" height="1440" preserveAspectRatio="xMidYMid meet" version="1.2"><defs/><g id="9119abe016"><rect x="0" width="1920" y="0" height="1079.999946" style="fill:#ffffff;fill-opacity:1;stroke:none;"/><rect x="0" width="1920" y="0" height="1079.999946" style="fill:#282424;fill-opacity:1;stroke:none;"/><path style=" stroke:none;fill-rule:nonzero;fill:#cbcac9;fill-opacity:1;" d="M 841.804688 441.53125 L 841.367188 529.902344 L 957.367188 597.222656 L 965.917969 597.222656 L 1081.042969 527.492188 L 1039.378906 504.683594 L 1039.160156 421.796875 L 968.113281 461.707031 L 967.453125 542.621094 L 1006.925781 518.28125 L 1024.25 526.832031 L 965.261719 566.523438 L 869.433594 514.992188 L 869.214844 457.976562 Z M 841.804688 441.53125 "/><path style=" stroke:none;fill-rule:nonzero;fill:#cbcac9;fill-opacity:1;" d="M 883.929688 503.160156 L 884.859375 453.851562 L 841.148438 427.46875 L 841.09375 388.726562 L 956.492188 317.855469 L 961.09375 317.855469 L 1081.261719 387.148438 L 1081.484375 502.273438 L 1053.851562 487.140625 L 1053.632812 406.882812 L 959.78125 353.378906 L 871.847656 404.691406 L 871.859375 411.859375 L 955.558594 460.636719 L 955.394531 542.949219 Z M 883.929688 503.160156 "/><path style=" stroke:none;fill-rule:nonzero;fill:#cbcac9;fill-opacity:1;" d="M 890.484375 410.171875 L 960.875 369.824219 L 1032.363281 409.953125 L 962.410156 450.082031 Z M 890.484375 410.171875 "/><g style="fill:#cbcac9;fill-opacity:1;"><g transform="translate(320.229036, 739.491682)"><path style="stroke:none" d="M 65.152344 2.675781 C 54.453125 2.675781 45.28125 0.957031 37.640625 -2.484375 C 29.996094 -5.921875 23.753906 -10.699219 18.914062 -16.8125 C 14.074219 -22.925781 10.539062 -29.902344 8.3125 -37.734375 C 6.082031 -45.566406 4.96875 -53.878906 4.96875 -62.667969 C 4.96875 -71.710938 6.113281 -80.246094 8.40625 -88.269531 C 10.699219 -96.292969 14.234375 -103.332031 19.011719 -109.382812 C 23.785156 -115.433594 29.933594 -120.175781 37.449219 -123.617188 C 44.960938 -127.054688 54.007812 -128.773438 64.578125 -128.773438 C 73.75 -128.773438 81.644531 -127.46875 88.269531 -124.859375 C 94.894531 -122.246094 100.210938 -118.679688 104.222656 -114.160156 C 108.234375 -109.636719 111.007812 -104.445312 112.535156 -98.585938 C 114.0625 -92.726562 114.445312 -86.613281 113.679688 -80.246094 L 85.214844 -76.804688 C 85.46875 -82.285156 84.800781 -86.996094 83.207031 -90.945312 C 81.613281 -94.894531 79.195312 -97.949219 75.945312 -100.117188 C 72.699219 -102.28125 68.589844 -103.363281 63.625 -103.363281 C 59.417969 -103.363281 55.695312 -102.535156 52.445312 -100.878906 C 49.199219 -99.222656 46.460938 -96.742188 44.230469 -93.429688 C 42 -90.117188 40.3125 -86.007812 39.167969 -81.105469 C 38.019531 -76.203125 37.449219 -70.5 37.449219 -64.003906 C 37.449219 -55.597656 38.46875 -48.304688 40.503906 -42.128906 C 42.542969 -35.953125 45.664062 -31.175781 49.867188 -27.800781 C 54.070312 -24.425781 59.355469 -22.734375 65.726562 -22.734375 C 71.582031 -22.734375 76.203125 -24.074219 79.578125 -26.75 C 82.953125 -29.421875 85.339844 -33.117188 86.742188 -37.828125 C 88.140625 -42.542969 88.589844 -47.828125 88.078125 -53.6875 L 117.3125 -51.203125 C 117.949219 -44.199219 117.46875 -37.480469 115.878906 -31.046875 C 114.285156 -24.613281 111.421875 -18.851562 107.28125 -13.757812 C 103.140625 -8.660156 97.601562 -4.648438 90.65625 -1.71875 C 83.714844 1.210938 75.214844 2.675781 65.152344 2.675781 Z M 65.152344 2.675781 "/></g></g><g style="fill:#cbcac9;fill-opacity:1;"><g transform="translate(440.787916, 739.491682)"><path style="stroke:none" d="M 38.210938 2.675781 C 27.257812 2.675781 19.136719 -1.144531 13.851562 -8.789062 C 8.566406 -16.429688 5.921875 -28.148438 5.921875 -43.945312 L 5.921875 -100.878906 L 36.875 -100.878906 L 36.875 -44.324219 C 36.875 -36.9375 37.925781 -31.78125 40.027344 -28.851562 C 42.128906 -25.921875 45.152344 -24.457031 49.101562 -24.457031 C 51.90625 -24.457031 54.484375 -25.1875 56.839844 -26.652344 C 59.195312 -28.117188 61.265625 -30.347656 63.050781 -33.339844 C 64.832031 -36.332031 66.203125 -40.1875 67.15625 -44.898438 C 68.113281 -49.613281 68.589844 -55.28125 68.589844 -61.902344 L 68.589844 -100.878906 L 99.542969 -100.878906 L 99.542969 0 L 73.175781 0 L 73.175781 -39.359375 L 71.839844 -39.359375 C 71.074219 -29.550781 69.355469 -21.558594 66.679688 -15.378906 C 64.003906 -9.203125 60.3125 -4.648438 55.597656 -1.71875 C 50.886719 1.210938 45.089844 2.675781 38.210938 2.675781 Z M 38.210938 2.675781 "/></g></g><g style="fill:#cbcac9;fill-opacity:1;"><g transform="translate(547.20834, 739.491682)"><path style="stroke:none" d="M 67.445312 2.675781 C 61.710938 2.675781 56.679688 1.402344 52.351562 -1.144531 C 48.019531 -3.695312 44.421875 -7.484375 41.554688 -12.515625 C 38.691406 -17.546875 36.554688 -23.753906 35.15625 -31.144531 L 33.816406 -31.144531 L 33.816406 0 L 6.878906 0 L 6.878906 -133.742188 L 37.828125 -133.742188 L 37.828125 -104.128906 C 37.828125 -100.6875 37.671875 -96.996094 37.351562 -93.046875 C 37.035156 -89.097656 36.589844 -85.023438 36.015625 -80.820312 C 35.441406 -76.613281 34.773438 -72.347656 34.007812 -68.015625 L 35.726562 -68.015625 C 36.875 -76.425781 38.914062 -83.238281 41.84375 -88.460938 C 44.773438 -93.683594 48.53125 -97.503906 53.113281 -99.925781 C 57.699219 -102.34375 62.921875 -103.554688 68.78125 -103.554688 C 76.296875 -103.554688 82.824219 -101.644531 88.367188 -97.824219 C 93.90625 -94 98.203125 -88.269531 101.261719 -80.628906 C 104.320312 -72.984375 105.847656 -63.367188 105.847656 -51.777344 C 105.847656 -39.421875 104.160156 -29.230469 100.785156 -21.207031 C 97.410156 -13.183594 92.824219 -7.195312 87.027344 -3.246094 C 81.234375 0.699219 74.703125 2.675781 67.445312 2.675781 Z M 56.554688 -21.972656 C 60.375 -21.972656 63.625 -23.214844 66.296875 -25.699219 C 68.972656 -28.179688 71.011719 -31.492188 72.410156 -35.632812 C 73.8125 -39.773438 74.511719 -44.324219 74.511719 -49.292969 C 74.511719 -54.261719 73.875 -58.910156 72.601562 -63.242188 C 71.328125 -67.570312 69.355469 -71.074219 66.679688 -73.75 C 64.003906 -76.425781 60.628906 -77.761719 56.554688 -77.761719 C 54.769531 -77.761719 52.957031 -77.441406 51.109375 -76.804688 C 49.261719 -76.167969 47.542969 -75.183594 45.949219 -73.84375 C 44.359375 -72.507812 42.925781 -70.789062 41.652344 -68.6875 C 40.378906 -66.585938 39.359375 -64.035156 38.59375 -61.042969 C 37.828125 -58.050781 37.449219 -54.644531 37.449219 -50.820312 L 37.449219 -49.484375 C 37.449219 -44.773438 37.988281 -40.695312 39.070312 -37.257812 C 40.15625 -33.816406 41.585938 -30.953125 43.371094 -28.660156 C 45.152344 -26.367188 47.191406 -24.679688 49.484375 -23.597656 C 51.777344 -22.511719 54.132812 -21.972656 56.554688 -21.972656 Z M 56.554688 -21.972656 "/></g></g><g style="fill:#cbcac9;fill-opacity:1;"><g transform="translate(657.258943, 739.491682)"><path style="stroke:none" d="M 6.878906 0 L 6.878906 -100.878906 L 37.828125 -100.878906 L 37.828125 0 Z M 22.164062 -108.140625 C 16.304688 -108.140625 11.8125 -109.382812 8.691406 -111.867188 C 5.574219 -114.351562 4.011719 -117.949219 4.011719 -122.660156 C 4.011719 -127.5 5.574219 -131.164062 8.691406 -133.648438 C 11.8125 -136.128906 16.304688 -137.371094 22.164062 -137.371094 C 28.148438 -137.371094 32.703125 -136.097656 35.824219 -133.550781 C 38.945312 -131.003906 40.503906 -127.375 40.503906 -122.660156 C 40.503906 -118.074219 38.945312 -114.507812 35.824219 -111.960938 C 32.703125 -109.414062 28.148438 -108.140625 22.164062 -108.140625 Z M 22.164062 -108.140625 "/></g></g><g style="fill:#cbcac9;fill-opacity:1;"><g transform="translate(701.96696, 739.491682)"><path style="stroke:none" d="M 55.214844 2.675781 C 46.171875 2.675781 38.402344 1.304688 31.90625 -1.433594 C 25.410156 -4.171875 20.125 -7.960938 16.050781 -12.800781 C 11.972656 -17.640625 8.980469 -23.183594 7.070312 -29.421875 C 5.160156 -35.664062 4.203125 -42.289062 4.203125 -49.292969 C 4.203125 -56.425781 5.160156 -63.210938 7.070312 -69.640625 C 8.980469 -76.074219 11.941406 -81.871094 15.953125 -87.027344 C 19.964844 -92.1875 25.1875 -96.230469 31.621094 -99.160156 C 38.054688 -102.089844 45.789062 -103.554688 54.835938 -103.554688 C 65.535156 -103.554688 74.164062 -101.546875 80.722656 -97.535156 C 87.28125 -93.523438 91.867188 -88.332031 94.480469 -81.964844 C 97.089844 -75.597656 97.824219 -68.71875 96.675781 -61.332031 L 69.929688 -59.230469 C 70.183594 -63.8125 69.707031 -67.605469 68.496094 -70.597656 C 67.285156 -73.589844 65.46875 -75.820312 63.050781 -77.285156 C 60.628906 -78.75 57.699219 -79.480469 54.261719 -79.480469 C 51.203125 -79.480469 48.496094 -78.90625 46.140625 -77.761719 C 43.785156 -76.613281 41.808594 -74.863281 40.21875 -72.507812 C 38.625 -70.152344 37.414062 -67.191406 36.589844 -63.625 C 35.761719 -60.058594 35.347656 -55.789062 35.347656 -50.820312 C 35.347656 -44.453125 36.078125 -38.976562 37.542969 -34.390625 C 39.007812 -29.804688 41.238281 -26.300781 44.230469 -23.882812 C 47.222656 -21.460938 51.011719 -20.253906 55.597656 -20.253906 C 60.3125 -20.253906 63.878906 -21.398438 66.296875 -23.691406 C 68.71875 -25.984375 70.308594 -28.882812 71.074219 -32.382812 C 71.839844 -35.886719 71.964844 -39.359375 71.457031 -42.796875 L 99.925781 -41.460938 C 100.6875 -35.855469 100.433594 -30.410156 99.160156 -25.125 C 97.886719 -19.839844 95.433594 -15.09375 91.804688 -10.890625 C 88.175781 -6.6875 83.335938 -3.375 77.285156 -0.957031 C 71.234375 1.464844 63.878906 2.675781 55.214844 2.675781 Z M 55.214844 2.675781 "/></g></g><g style="fill:#cbcac9;fill-opacity:1;"><g transform="translate(804.948344, 739.491682)"><path style="stroke:none" d="M 7.640625 0 L 7.640625 -126.101562 L 38.59375 -126.101562 L 38.59375 0 Z M 12.992188 0 L 12.992188 -26.367188 L 86.550781 -26.367188 L 86.550781 0 Z M 12.992188 0 "/></g></g><g style="fill:#cbcac9;fill-opacity:1;"><g transform="translate(892.835999, 739.491682)"><path style="stroke:none" d="M 33.4375 2.675781 C 28.339844 2.675781 23.5 1.785156 18.914062 0 C 14.328125 -1.785156 10.570312 -4.679688 7.640625 -8.691406 C 4.710938 -12.707031 3.246094 -18.085938 3.246094 -24.835938 C 3.246094 -31.078125 4.457031 -36.140625 6.878906 -40.027344 C 9.296875 -43.910156 12.546875 -47.03125 16.621094 -49.390625 C 20.699219 -51.746094 25.15625 -53.527344 29.996094 -54.738281 C 34.835938 -55.949219 39.613281 -57 44.324219 -57.890625 C 50.949219 -59.164062 55.917969 -60.183594 59.230469 -60.949219 C 62.539062 -61.710938 64.800781 -62.605469 66.011719 -63.625 C 67.222656 -64.640625 67.828125 -66.042969 67.828125 -67.828125 C 67.828125 -71.519531 66.457031 -74.324219 63.71875 -76.234375 C 60.980469 -78.144531 57.382812 -79.097656 52.921875 -79.097656 C 50.121094 -79.097656 47.320312 -78.589844 44.515625 -77.570312 C 41.714844 -76.550781 39.421875 -74.738281 37.640625 -72.125 C 35.855469 -69.515625 35.027344 -65.789062 35.15625 -60.949219 L 7.640625 -62.859375 C 7.386719 -70.882812 8.597656 -77.539062 11.273438 -82.824219 C 13.949219 -88.109375 17.609375 -92.25 22.257812 -95.242188 C 26.90625 -98.238281 32.003906 -100.371094 37.542969 -101.644531 C 43.085938 -102.917969 48.59375 -103.554688 54.070312 -103.554688 C 64.132812 -103.554688 72.410156 -101.675781 78.90625 -97.917969 C 85.402344 -94.160156 90.210938 -88.746094 93.332031 -81.679688 C 96.453125 -74.609375 98.015625 -66.042969 98.015625 -55.980469 L 98.015625 -38.019531 C 98.015625 -33.816406 98.015625 -29.582031 98.015625 -25.316406 C 98.015625 -21.046875 98.015625 -16.8125 98.015625 -12.609375 C 98.015625 -8.40625 98.015625 -4.203125 98.015625 0 L 71.265625 0 C 71.265625 -4.585938 71.265625 -9.234375 71.265625 -13.949219 C 71.265625 -18.660156 71.265625 -23.628906 71.265625 -28.851562 L 70.121094 -28.851562 C 69.609375 -23.117188 67.730469 -17.863281 64.484375 -13.085938 C 61.234375 -8.3125 56.96875 -4.488281 51.683594 -1.625 C 46.394531 1.242188 40.3125 2.675781 33.4375 2.675781 Z M 46.238281 -19.871094 C 48.402344 -19.871094 50.726562 -20.285156 53.210938 -21.113281 C 55.695312 -21.941406 58.050781 -23.308594 60.28125 -25.21875 C 62.507812 -27.128906 64.324219 -29.773438 65.726562 -33.148438 C 67.125 -36.523438 67.828125 -40.695312 67.828125 -45.664062 L 67.828125 -50.25 L 72.984375 -50.820312 C 71.964844 -49.167969 70.277344 -47.828125 67.921875 -46.808594 C 65.566406 -45.789062 62.921875 -44.996094 59.992188 -44.421875 C 57.0625 -43.847656 54.101562 -43.273438 51.109375 -42.703125 C 48.117188 -42.128906 45.34375 -41.363281 42.796875 -40.410156 C 40.25 -39.453125 38.179688 -38.179688 36.589844 -36.589844 C 34.996094 -34.996094 34.199219 -32.796875 34.199219 -29.996094 C 34.199219 -26.683594 35.378906 -24.167969 37.734375 -22.449219 C 40.089844 -20.730469 42.925781 -19.871094 46.238281 -19.871094 Z M 46.238281 -19.871094 "/></g></g><g style="fill:#cbcac9;fill-opacity:1;"><g transform="translate(996.581591, 739.491682)"><path style="stroke:none" d="M 38.210938 2.675781 C 27.257812 2.675781 19.136719 -1.144531 13.851562 -8.789062 C 8.566406 -16.429688 5.921875 -28.148438 5.921875 -43.945312 L 5.921875 -100.878906 L 36.875 -100.878906 L 36.875 -44.324219 C 36.875 -36.9375 37.925781 -31.78125 40.027344 -28.851562 C 42.128906 -25.921875 45.152344 -24.457031 49.101562 -24.457031 C 51.90625 -24.457031 54.484375 -25.1875 56.839844 -26.652344 C 59.195312 -28.117188 61.265625 -30.347656 63.050781 -33.339844 C 64.832031 -36.332031 66.203125 -40.1875 67.15625 -44.898438 C 68.113281 -49.613281 68.589844 -55.28125 68.589844 -61.902344 L 68.589844 -100.878906 L 99.542969 -100.878906 L 99.542969 0 L 73.175781 0 L 73.175781 -39.359375 L 71.839844 -39.359375 C 71.074219 -29.550781 69.355469 -21.558594 66.679688 -15.378906 C 64.003906 -9.203125 60.3125 -4.648438 55.597656 -1.71875 C 50.886719 1.210938 45.089844 2.675781 38.210938 2.675781 Z M 38.210938 2.675781 "/></g></g><g style="fill:#cbcac9;fill-opacity:1;"><g transform="translate(1103.002003, 739.491682)"><path style="stroke:none" d="M 6.878906 0 L 6.878906 -100.878906 L 33.054688 -100.878906 L 33.054688 -59.800781 L 34.582031 -59.800781 C 35.347656 -69.738281 37.003906 -77.921875 39.550781 -84.351562 C 42.097656 -90.785156 45.726562 -95.59375 50.441406 -98.777344 C 55.152344 -101.960938 61.140625 -103.554688 68.398438 -103.554688 C 79.355469 -103.554688 87.601562 -99.925781 93.140625 -92.664062 C 98.683594 -85.402344 101.453125 -74.578125 101.453125 -60.183594 L 101.453125 0 L 70.5 0 L 70.5 -56.171875 C 70.5 -63.050781 69.449219 -68.207031 67.347656 -71.648438 C 65.246094 -75.085938 61.902344 -76.804688 57.316406 -76.804688 C 53.496094 -76.804688 50.121094 -75.46875 47.191406 -72.792969 C 44.261719 -70.121094 41.96875 -65.789062 40.3125 -59.800781 C 38.65625 -53.816406 37.828125 -45.789062 37.828125 -35.726562 L 37.828125 0 Z M 6.878906 0 "/></g></g><g style="fill:#cbcac9;fill-opacity:1;"><g transform="translate(1210.377785, 739.491682)"><path style="stroke:none" d="M 55.214844 2.675781 C 46.171875 2.675781 38.402344 1.304688 31.90625 -1.433594 C 25.410156 -4.171875 20.125 -7.960938 16.050781 -12.800781 C 11.972656 -17.640625 8.980469 -23.183594 7.070312 -29.421875 C 5.160156 -35.664062 4.203125 -42.289062 4.203125 -49.292969 C 4.203125 -56.425781 5.160156 -63.210938 7.070312 -69.640625 C 8.980469 -76.074219 11.941406 -81.871094 15.953125 -87.027344 C 19.964844 -92.1875 25.1875 -96.230469 31.621094 -99.160156 C 38.054688 -102.089844 45.789062 -103.554688 54.835938 -103.554688 C 65.535156 -103.554688 74.164062 -101.546875 80.722656 -97.535156 C 87.28125 -93.523438 91.867188 -88.332031 94.480469 -81.964844 C 97.089844 -75.597656 97.824219 -68.71875 96.675781 -61.332031 L 69.929688 -59.230469 C 70.183594 -63.8125 69.707031 -67.605469 68.496094 -70.597656 C 67.285156 -73.589844 65.46875 -75.820312 63.050781 -77.285156 C 60.628906 -78.75 57.699219 -79.480469 54.261719 -79.480469 C 51.203125 -79.480469 48.496094 -78.90625 46.140625 -77.761719 C 43.785156 -76.613281 41.808594 -74.863281 40.21875 -72.507812 C 38.625 -70.152344 37.414062 -67.191406 36.589844 -63.625 C 35.761719 -60.058594 35.347656 -55.789062 35.347656 -50.820312 C 35.347656 -44.453125 36.078125 -38.976562 37.542969 -34.390625 C 39.007812 -29.804688 41.238281 -26.300781 44.230469 -23.882812 C 47.222656 -21.460938 51.011719 -20.253906 55.597656 -20.253906 C 60.3125 -20.253906 63.878906 -21.398438 66.296875 -23.691406 C 68.71875 -25.984375 70.308594 -28.882812 71.074219 -32.382812 C 71.839844 -35.886719 71.964844 -39.359375 71.457031 -42.796875 L 99.925781 -41.460938 C 100.6875 -35.855469 100.433594 -30.410156 99.160156 -25.125 C 97.886719 -19.839844 95.433594 -15.09375 91.804688 -10.890625 C 88.175781 -6.6875 83.335938 -3.375 77.285156 -0.957031 C 71.234375 1.464844 63.878906 2.675781 55.214844 2.675781 Z M 55.214844 2.675781 "/></g></g><g style="fill:#cbcac9;fill-opacity:1;"><g transform="translate(1313.359131, 739.491682)"><path style="stroke:none" d="M 6.878906 0 L 6.878906 -133.742188 L 37.828125 -133.742188 L 37.828125 -108.523438 C 37.828125 -105.847656 37.671875 -102.3125 37.351562 -97.917969 C 37.035156 -93.523438 36.589844 -88.84375 36.015625 -83.875 C 35.441406 -78.90625 34.867188 -74.164062 34.296875 -69.640625 C 33.722656 -65.121094 33.246094 -61.332031 32.863281 -58.273438 L 34.582031 -58.273438 C 35.726562 -68.84375 37.703125 -77.476562 40.503906 -84.160156 C 43.308594 -90.847656 47.128906 -95.753906 51.96875 -98.875 C 56.808594 -101.996094 62.667969 -103.554688 69.546875 -103.554688 C 80.371094 -103.554688 88.398438 -99.703125 93.621094 -91.996094 C 98.84375 -84.289062 101.453125 -72.667969 101.453125 -57.128906 L 101.453125 0 L 70.5 0 L 70.5 -55.789062 C 70.5 -62.921875 69.546875 -68.144531 67.636719 -71.457031 C 65.726562 -74.769531 62.605469 -76.425781 58.273438 -76.425781 C 54.453125 -76.425781 51.011719 -74.992188 47.957031 -72.125 C 44.898438 -69.257812 42.445312 -64.707031 40.601562 -58.464844 C 38.753906 -52.222656 37.828125 -44.136719 37.828125 -34.199219 L 37.828125 0 Z M 6.878906 0 "/></g></g><g style="fill:#cbcac9;fill-opacity:1;"><g transform="translate(1420.734913, 739.491682)"><path style="stroke:none" d="M 54.835938 2.675781 C 45.28125 2.675781 37.289062 1.304688 30.855469 -1.433594 C 24.425781 -4.171875 19.234375 -7.929688 15.285156 -12.707031 C 11.335938 -17.480469 8.503906 -22.925781 6.78125 -29.042969 C 5.0625 -35.15625 4.203125 -41.585938 4.203125 -48.339844 C 4.203125 -55.597656 5.125 -62.539062 6.972656 -69.164062 C 8.820312 -75.789062 11.6875 -81.679688 15.570312 -86.835938 C 19.457031 -91.996094 24.488281 -96.070312 30.664062 -99.066406 C 36.84375 -102.058594 44.261719 -103.554688 52.921875 -103.554688 C 61.585938 -103.554688 69.003906 -102.058594 75.183594 -99.066406 C 81.359375 -96.070312 86.296875 -91.898438 89.988281 -86.550781 C 93.683594 -81.199219 96.070312 -75.023438 97.152344 -68.015625 C 98.238281 -61.011719 98.078125 -53.433594 96.675781 -45.28125 L 23.5 -44.136719 L 23.5 -60.949219 L 72.984375 -61.902344 L 68.972656 -52.160156 C 69.738281 -58.019531 69.640625 -62.953125 68.6875 -66.964844 C 67.730469 -70.980469 65.980469 -74.035156 63.433594 -76.136719 C 60.882812 -78.238281 57.382812 -79.289062 52.921875 -79.289062 C 48.210938 -79.289062 44.453125 -78.078125 41.652344 -75.660156 C 38.847656 -73.238281 36.875 -69.832031 35.726562 -65.4375 C 34.582031 -61.042969 34.007812 -55.851562 34.007812 -49.867188 C 34.007812 -39.550781 35.726562 -32.035156 39.167969 -27.320312 C 42.605469 -22.609375 47.890625 -20.253906 55.027344 -20.253906 C 58.082031 -20.253906 60.628906 -20.632812 62.667969 -21.398438 C 64.707031 -22.164062 66.363281 -23.277344 67.636719 -24.742188 C 68.910156 -26.207031 69.800781 -27.992188 70.308594 -30.09375 C 70.820312 -32.195312 71.011719 -34.582031 70.882812 -37.257812 L 99.160156 -35.726562 C 99.542969 -31.523438 99.128906 -27.195312 97.917969 -22.734375 C 96.707031 -18.277344 94.449219 -14.136719 91.136719 -10.316406 C 87.824219 -6.496094 83.207031 -3.375 77.285156 -0.957031 C 71.359375 1.464844 63.878906 2.675781 54.835938 2.675781 Z M 54.835938 2.675781 "/></g></g><g style="fill:#cbcac9;fill-opacity:1;"><g transform="translate(1523.334174, 739.491682)"><path style="stroke:none" d="M 6.878906 0 L 6.878906 -100.878906 L 33.625 -100.878906 L 33.625 -60.757812 L 35.15625 -60.757812 C 35.917969 -71.457031 37.414062 -79.894531 39.644531 -86.074219 C 41.875 -92.25 44.675781 -96.644531 48.050781 -99.257812 C 51.425781 -101.867188 55.214844 -103.171875 59.417969 -103.171875 C 61.710938 -103.171875 64.101562 -102.855469 66.585938 -102.21875 C 69.066406 -101.582031 71.519531 -100.5625 73.941406 -99.160156 L 72.410156 -64.769531 C 69.609375 -66.425781 66.871094 -67.667969 64.195312 -68.496094 C 61.519531 -69.324219 58.972656 -69.738281 56.554688 -69.738281 C 52.476562 -69.738281 49.039062 -68.589844 46.238281 -66.296875 C 43.433594 -64.003906 41.300781 -60.628906 39.835938 -56.171875 C 38.371094 -51.714844 37.640625 -46.300781 37.640625 -39.929688 L 37.640625 0 Z M 6.878906 0 "/></g></g></g></svg>